<?xml version="1.0" encoding="utf-8" ?>
<svg xmlns="http://www.w3.org/2000/svg" xmlns:xlink="http://www.w3.org/1999/xlink" width="4000" height="4000">
	<path fill="#B48633" d="M2040.09 1900.22C2053.19 1895.79 2063.17 1893.01 2076.2 1899.85C2084.45 1904.19 2089.64 1912.13 2092.22 1920.94C2093.41 1924.99 2093.64 1929.04 2093.57 1933.23C2092.25 1930.99 2092.36 1931.06 2090.5 1928.59C2082.72 1918.29 2071.24 1909.95 2058.09 1908.94C2043.61 1907.82 2033.95 1914.37 2023.52 1923.55C2028.52 1914.76 2033.4 1907.79 2040.09 1900.22Z"/>
	<path fill="#FEFDFD" d="M2023.52 1923.55C2033.95 1914.37 2043.61 1907.82 2058.09 1908.94C2071.24 1909.95 2082.72 1918.29 2090.5 1928.59C2092.36 1931.06 2092.25 1930.99 2093.57 1933.23C2089.08 1932.79 2090.99 1933.19 2086.87 1931.99C2065.84 1925.89 2042.42 1929.86 2023.52 1923.55Z"/>
	<path fill="#B48633" d="M2449.44 1093.38C2459.05 1096.25 2463.98 1106.08 2469.13 1113.95C2462.19 1121.35 2454.76 1128.4 2447.57 1135.56C2440.92 1133.02 2432.45 1119.62 2427.75 1113.82C2434.57 1106.44 2441.86 1099.94 2449.44 1093.38Z"/>
	<path fill="#B48633" d="M2387.34 1093.41C2395.7 1099.08 2400.75 1106.37 2406.51 1114.46C2398.77 1122.31 2390.58 1129.8 2382.62 1137.42L2363.91 1115.02C2371.33 1107.47 2379.49 1100.53 2387.34 1093.41Z"/>
	<path fill="#B48633" d="M2075.89 1054.65L2077.7 1056.92C2078.57 1060.89 2079.26 1064.24 2078.33 1068.28C2073.77 1087.99 2045.16 1106.45 2029.34 1117.25L2027.36 1114.28C2028.09 1101.7 2035.04 1089.75 2040.89 1078.84C2053.19 1071.38 2064.59 1063.55 2075.89 1054.65Z"/>
	<path fill="#B48633" d="M1991.43 2211.1C1986.79 2212.27 1982.71 2212.72 1978.05 2211.55C1971.84 2209.97 1966.95 2206.77 1963.69 2201.13C1959.04 2193.1 1959.09 2182.51 1961.4 2173.77C1963.76 2164.81 1968.66 2156.21 1977.04 2151.66C1981.47 2149.26 1986.6 2146.76 1991.68 2148.04C2000.68 2161.16 2002.96 2174.27 2000.04 2189.96C1998.6 2197.65 1995.6 2204.55 1991.43 2211.1Z"/>
	<path fill="#FEFDFD" d="M1991.43 2211.1C1990.93 2210.66 1990.4 2210.27 1989.94 2209.79C1981.97 2201.29 1979.77 2185.97 1980.62 2174.8C1981.35 2165.19 1984.01 2154.39 1991.68 2148.04C2000.68 2161.16 2002.96 2174.27 2000.04 2189.96C1998.6 2197.65 1995.6 2204.55 1991.43 2211.1Z"/>
	<path fill="#B48633" d="M2091.52 2476.08C2095.87 2477.79 2100.46 2480.11 2104.48 2482.51Q2105.23 2482.96 2105.96 2483.44Q2106.68 2483.92 2107.38 2484.44Q2108.08 2484.96 2108.76 2485.52Q2109.43 2486.07 2110.07 2486.66Q2110.72 2487.24 2111.33 2487.86Q2111.95 2488.48 2112.53 2489.13Q2113.11 2489.78 2113.66 2490.46Q2114.21 2491.14 2114.72 2491.84Q2115.23 2492.55 2115.71 2493.28Q2116.19 2494.01 2116.63 2494.76Q2117.06 2495.52 2117.47 2496.29Q2117.87 2497.07 2118.23 2497.86Q2118.59 2498.66 2118.91 2499.47Q2119.23 2500.28 2119.51 2501.1Q2119.78 2501.93 2120.02 2502.77Q2120.26 2503.61 2120.45 2504.46C2122.46 2513.22 2120.55 2522.34 2115.67 2529.82C2107.97 2541.62 2097.33 2545.61 2084.08 2548C2080.45 2547 2076.79 2545.99 2073.56 2543.99C2066.61 2539.66 2054.22 2525.65 2053.25 2517.35C2051.48 2502.26 2070.01 2501.27 2079.16 2493.77C2083.92 2489.88 2087.05 2483.8 2090.11 2478.54L2091.52 2476.08Z"/>
	<path fill="#B48633" d="M2020.96 1144.24C2025.79 1143.97 2032.4 1143.53 2036.07 1147.2C2054.09 1165.22 2025.37 1273.25 2026.29 1301.76C2026.45 1306.43 2026.7 1308.69 2030.12 1312.06C2042.45 1311.19 2054.18 1288.03 2063.6 1279.96L2066.43 1280.71C2066.89 1283.21 2066.86 1285.04 2066.04 1287.48C2059.01 1308.31 2036.98 1325.48 2018.19 1335.67C2012.38 1335.97 2006.42 1336.67 2001.54 1332.77C1975.78 1312.23 2021.29 1201.78 2012.18 1177.21C2010.23 1171.96 2009.16 1171.75 2004.34 1169.89C1990.66 1173.07 1984.92 1190.53 1974.64 1199.13L1972.18 1197.87C1971.19 1194.59 1970.39 1193.68 1971.35 1190.21C1976.45 1171.74 2005.08 1152.71 2020.96 1144.24Z"/>
	<path fill="#B48633" d="M2768.71 1162.67C2785.35 1161.29 2801.73 1164.07 2818.03 1167.09C2810.81 1175.07 2802.74 1182.27 2794.91 1189.64C2784.02 1183.49 2773.73 1177.62 2760.77 1179.38C2752.89 1180.45 2746.63 1182.84 2741.61 1189.2C2733.64 1214.65 2796.09 1256.89 2801 1288.76C2802.91 1301.2 2799.26 1312.97 2791.89 1323.02C2776.96 1343.39 2753.79 1350.17 2730.16 1354.32C2712.68 1353.47 2698.12 1349.7 2681.72 1343.84L2709.75 1322.75Q2712.45 1324.38 2715.2 1325.95C2726.81 1332.63 2743.16 1342 2756.91 1337.64C2764.35 1335.28 2773.09 1330.57 2776.16 1322.91C2786.28 1297.63 2727.13 1247.29 2718.56 1219.66C2715.57 1210.05 2714.82 1198.8 2720.03 1189.8C2728.85 1174.56 2752.44 1166.62 2768.71 1162.67Z"/>
	<path fill="#B48633" d="M2914.13 1162.81C2929.86 1162.12 2945.53 1164.87 2960.97 1167.46L2937.15 1189.36C2929.48 1185.44 2921.73 1181.5 2913.19 1179.91C2903.88 1178.18 2894.28 1179.26 2886.33 1184.51C2873.12 1209.78 2938.97 1257.11 2943.14 1292.79C2944.5 1304.4 2941.22 1316.19 2933.43 1325.03C2915.65 1345.19 2890.05 1353.37 2864.03 1354.52C2849.98 1352.46 2837.21 1348.55 2823.86 1343.8C2833.95 1336.54 2843.42 1328.95 2852.79 1320.78C2864.59 1330.76 2876.63 1339.15 2892.85 1337.67C2901.22 1336.9 2910.55 1333.43 2915.52 1326.27C2932.88 1301.22 2865.75 1243.49 2858.22 1214.82C2855.94 1206.15 2855.77 1196.95 2860.94 1189.24C2871.02 1174.23 2897.32 1165.86 2914.13 1162.81Z"/>
	<path fill="#B48633" d="M1851.73 1144.78C1853.94 1144.82 1855.78 1144.77 1857.93 1145.02C1862.53 1145.54 1866.35 1148.03 1868.95 1151.85C1879.39 1167.2 1869.75 1205.17 1867.43 1223.12C1879.63 1202.13 1892.19 1178.93 1910.55 1162.63C1922.68 1151.86 1937.9 1143.76 1954.43 1145.31C1960.21 1145.86 1964.68 1146.9 1968.38 1151.46C1967.19 1161.71 1952.91 1171.82 1945.59 1178.42C1935.74 1175.81 1928.3 1174.09 1918.61 1178.25C1892.76 1189.36 1878.54 1220.99 1868.15 1245.37C1860.23 1271.35 1859.28 1298.64 1855.16 1325.34C1845.9 1328.56 1836.21 1330.62 1826.7 1332.97C1829.04 1294.61 1847.18 1208.28 1841.76 1176.1C1841.05 1171.87 1840.42 1171.37 1837.18 1169C1823.6 1171.68 1808.08 1195.42 1798.24 1205.65C1799.55 1199.7 1800.79 1193.51 1802.93 1187.79C1811.29 1165.43 1830.9 1153.54 1851.73 1144.78Z"/>
	<path fill="#B48633" d="M1742.27 1144.82C1749.47 1144.28 1756 1144.27 1762.97 1146.47C1769.86 1148.64 1776.93 1151.86 1779.68 1159.12C1784.55 1171.93 1776.12 1189.21 1769.77 1200.23C1750.74 1233.23 1717.23 1254.02 1681.18 1263.85C1683 1273.72 1685.05 1283.6 1689.51 1292.67C1693.56 1300.9 1699.5 1309.7 1708.78 1312.42C1736.45 1320.55 1752.9 1284.76 1772.22 1273.5L1775.68 1274.73L1776.91 1280.94C1763.96 1300.72 1747.12 1319.84 1725.8 1330.84C1713.5 1337.19 1699.81 1339.88 1686.49 1335.02C1673.55 1330.3 1664.23 1319.15 1659.16 1306.64C1648.29 1279.85 1654.59 1248.23 1665.67 1222.51C1680.88 1187.2 1706.34 1159.16 1742.27 1144.82ZM1722.91 1170.43C1705.26 1181.92 1687.03 1202.22 1683.4 1223.79C1682.33 1230.14 1683.99 1233.41 1687.7 1238.4C1696.75 1242.74 1703.69 1240.97 1713.2 1238.94C1730.56 1230.53 1745.46 1219.83 1752.1 1200.71C1754.15 1194.8 1755.08 1188.11 1752.04 1182.33C1748.73 1176.04 1741.06 1172.3 1734.27 1171.18C1730.56 1170.56 1726.67 1170.52 1722.91 1170.43Z"/>
	<path fill="#B48633" d="M3309.01 1160.42C3312.32 1161.17 3316.59 1161.86 3319.55 1163.51C3353.95 1182.81 3305.74 1288.94 3318.98 1323.34C3320.57 1327.46 3321.46 1327.62 3325.23 1329.36C3340.76 1325.81 3340.85 1305.88 3352.46 1297.53C3355.18 1295.58 3354.66 1296.37 3358.35 1297.31L3359.75 1301.16C3358.92 1306.14 3356.69 1309.99 3353.97 1314.17C3345.4 1327.3 3323.08 1353.18 3307.02 1354.68C3302.34 1355.11 3298.72 1354.46 3295.21 1351.1C3275.1 1331.79 3301.25 1239.51 3301.55 1210.98C3301.64 1202.71 3300.91 1195.17 3294.96 1188.93C3288.5 1186.95 3285.41 1186.98 3279.21 1189.86C3250.27 1203.35 3230.39 1231.1 3219.58 1260.27C3211.77 1287.15 3208.41 1314.44 3204.95 1342.13C3194.56 1345.48 3184.55 1350.29 3174.53 1354.61C3181 1308.83 3190.43 1259.4 3190.42 1213.25C3190.42 1204.46 3190.16 1197.61 3183.78 1191.19C3168.21 1192.14 3165.94 1210.01 3153.85 1214.04C3153.83 1213.37 3153.74 1212.69 3153.79 1212.02C3154.61 1200.74 3165.4 1185.93 3173.21 1178.19C3180.11 1171.34 3196.55 1159.28 3207.03 1160.5C3211.71 1161.05 3214.32 1163.8 3216.9 1167.48C3228.31 1183.73 3217.65 1225.4 3214.5 1244.2C3240.46 1208.66 3264.73 1173.26 3309.01 1160.42Z"/>
	<path fill="#B48633" d="M2628.86 1160.45C2633.17 1160.66 2637.91 1160.97 2641.46 1163.73C2666.68 1183.3 2630.98 1287.74 2634.35 1319.73C2634.9 1324.98 2635.45 1326.96 2639.57 1330.21C2652.39 1328.78 2664.21 1307.23 2674.9 1299.57L2676.15 1302.3C2675.03 1308.57 2673.61 1313.29 2670.19 1318.73C2661.47 1332.6 2642.03 1351.17 2625.08 1353.57C2620.49 1354.22 2615.86 1353.48 2612.38 1350.16C2592.14 1330.88 2622.85 1233.72 2618.12 1202.79C2617.15 1196.48 2615.49 1192.28 2610.28 1188.25C2605.2 1186.85 2601.55 1187.69 2596.86 1189.82C2564.81 1204.36 2547.63 1234.58 2536.25 1266.1C2529.22 1291.89 2525.89 1317.31 2523.29 1343.81C2513.1 1346.61 2503.36 1350.45 2493.5 1354.23L2493.8 1352.09C2497.21 1327.05 2516.81 1199.71 2506.74 1186.47C2490.33 1187 2481.36 1215.74 2467.72 1216.66C2467.11 1208.22 2471.82 1200.9 2476.74 1194.39C2485.49 1182.78 2507.69 1162.22 2523.09 1161.98C2527.97 1161.91 2531.71 1162.7 2535.17 1166.43C2547.32 1179.57 2536.61 1223.19 2534.1 1239.77C2560.97 1204.15 2584.36 1173.6 2628.86 1160.45Z"/>
	<path fill="#B48633" d="M3073.73 1162.14C3084.58 1161.23 3095.01 1161.37 3105.2 1165.7C3116.32 1170.43 3123.98 1178.85 3127.86 1190.28C3137.35 1218.32 3127.29 1256.32 3114.58 1282.01C3098.41 1314.68 3071.76 1341.77 3036.87 1353.61C3025.41 1354.5 3015.24 1354.55 3004.52 1349.83C2993.14 1344.81 2985.5 1336.13 2981.53 1324.39C2971.74 1295.5 2983.16 1257.7 2996.59 1231.7C3013.22 1199.53 3038.68 1173.2 3073.73 1162.14ZM3057.5 1183.74C3038.45 1191.67 3027.59 1203.09 3019.32 1222.15C3009.07 1245.79 3004.22 1282.27 3014.37 1306.39C3018.38 1315.92 3025.81 1325.1 3035.69 1328.91C3040.44 1330.75 3046.14 1331.43 3051.22 1331.79C3069.59 1325.77 3079.53 1316.61 3088.2 1299.2C3100.15 1275.17 3104.95 1236.98 3096.12 1211.34C3092.58 1201.05 3085.85 1191.55 3075.81 1186.8C3070.1 1184.1 3063.74 1183.55 3057.5 1183.74Z"/>
	<path fill="#B48633" d="M2390.16 1161.78C2401.12 1160.96 2412.01 1160.55 2422.32 1164.99C2433.53 1169.83 2441.36 1177.86 2445.57 1189.36C2455.01 1215.1 2448.22 1248.49 2437.46 1272.85C2421.63 1308.67 2394.77 1338.3 2357.93 1352.52C2347.44 1353.9 2336.71 1354.66 2326.54 1351.15C2315.18 1347.23 2306.5 1339.77 2301.61 1328.71C2290.95 1304.63 2298.05 1271.7 2307.42 1248.12C2323.58 1207.43 2349.93 1178.98 2390.16 1161.78ZM2374.25 1183.63C2354.7 1191.89 2345.13 1204.02 2337.05 1223.54C2327.2 1247.34 2323.02 1282.72 2333.31 1306.79C2337.72 1317.11 2345.92 1326.26 2356.83 1329.78C2361.31 1331.23 2366.53 1331.66 2371.23 1331.83C2390.79 1323.74 2401.64 1312.1 2409.84 1292.45C2420.11 1267.82 2423.51 1230.65 2412.4 1205.99C2408.29 1196.85 2400.53 1188.04 2390.82 1184.7C2385.81 1182.98 2379.47 1183.19 2374.25 1183.63Z"/>
	<path fill="#B48633" d="M1375.69 1148.91C1388.73 1147.47 1415.01 1144.73 1426.27 1151.73C1434.19 1156.65 1400.99 1275.76 1405.88 1302.37C1406.73 1307.01 1407.45 1309.01 1411.48 1311.72C1428.05 1309.14 1433.79 1284.47 1447.66 1277.17L1448.9 1281.03C1446.53 1290.93 1439.04 1301.17 1432.81 1309.14C1424.67 1319.54 1408.46 1337.79 1394.62 1338.03C1389.6 1338.12 1385.41 1336.98 1382.05 1333.03C1370.35 1319.26 1377.14 1293.67 1379.73 1277.83L1384.38 1255.63C1364.73 1284.03 1337.9 1324.42 1302.9 1334.87C1294.71 1337.31 1285.38 1337.46 1277.86 1332.94C1269.97 1328.19 1265.49 1319.75 1263.33 1311.03C1255.6 1279.86 1269.79 1238.75 1285.94 1212.19C1307.12 1177.34 1336.59 1158.35 1375.69 1148.91ZM1348.33 1168.08C1321.98 1182.38 1308.77 1206.57 1300.34 1234.39C1295 1252.02 1288.44 1281.56 1297.1 1298.6C1299.07 1302.47 1302.2 1305.67 1306.42 1307C1315.13 1309.74 1324.88 1304.19 1331.88 1299.46C1358.89 1275.51 1375.14 1251.22 1387.26 1217.18C1390.38 1208.41 1394.53 1198.41 1395.22 1189.08C1395.52 1185.08 1395.21 1180.26 1392.66 1176.96C1385.64 1167.85 1363.95 1167.48 1353.7 1167.75C1351.91 1167.8 1350.12 1167.95 1348.33 1168.08Z"/>
	<path fill="#B48633" d="M1585.85 1147.15C1600.96 1145.89 1615.53 1147.98 1630.34 1150.76C1612.18 1226.13 1620.89 1304.34 1604.58 1379.53C1595.92 1419.42 1575.1 1451.68 1540.31 1473.61C1513.34 1490.61 1482.96 1498.74 1451.36 1491.74C1442.69 1487.66 1434.74 1482.1 1428.31 1474.94C1416.5 1461.77 1412.09 1445.59 1413.61 1428.11C1417.18 1387.03 1447.54 1356.78 1476.85 1331.23C1470.17 1319.78 1465.36 1309.95 1463.58 1296.52C1459.12 1263 1474.18 1227.69 1494.08 1201.38C1517.52 1170.41 1547.39 1152.36 1585.85 1147.15ZM1583.22 1259.2C1564.21 1288.05 1538.58 1327.23 1501.97 1334.42C1496.3 1335.53 1490.19 1335.76 1484.42 1335.75C1464.41 1358.55 1438.02 1386.96 1440.56 1419.83C1441.77 1435.33 1449.19 1447.04 1459.16 1458.44C1476.71 1469.57 1495.73 1477.48 1516.88 1472.28C1535.38 1467.73 1550.18 1453.55 1559.39 1437.32C1577.83 1404.81 1589.41 1299.93 1585.4 1261.93L1583.22 1259.2ZM1554.56 1166.48C1532.11 1174.67 1519.27 1191.75 1509.64 1212.85C1499.89 1234.21 1488.76 1271.36 1497.86 1294.09C1499.88 1299.13 1503.05 1303.1 1508.24 1305.17C1515.63 1308.11 1524.03 1304.51 1530.59 1301.05C1574.45 1266.13 1588.43 1228.22 1595.95 1173.87C1582.24 1170.86 1568.59 1167.46 1554.56 1166.48Z"/>
	<path fill="#B48633" d="M1089.96 1020.26C1119.56 1018.23 1151.91 1021 1180.34 1029.72C1202.15 1036.42 1223.38 1048.52 1233.91 1069.65C1242.31 1086.49 1242.14 1106.31 1236.31 1123.94C1222.32 1166.25 1183.92 1185.78 1147.17 1204.85C1175.13 1216.19 1199.97 1226.92 1218.7 1252.05C1233.52 1271.93 1241.29 1296.47 1237.11 1321.21C1232.08 1350.96 1212.23 1374.67 1187.91 1391.17C1110.84 1443.48 977.798 1433.28 889.386 1417.07Q906.74 1396.95 924.99 1377.64C939.115 1381.33 955.295 1386.55 969.947 1384.94Q974.579 1381.47 979.065 1377.82C988.553 1370.04 995.25 1360.77 999.564 1349.28C1014.87 1308.51 1016.26 1259.94 1020.96 1216.84Q1029.97 1134.33 1038.1 1051.73C1020.08 1054.28 1002.19 1057.42 984.979 1063.49C955.929 1073.74 927.136 1091.89 914.012 1120.89C900.912 1149.84 907.734 1177.23 918.463 1205.35Q895.07 1225.12 872.502 1245.83C870.555 1236.76 868.413 1227.73 867.495 1218.48C863.278 1175.97 873.088 1134.02 900.494 1100.67C947.727 1043.17 1019.59 1027.24 1089.96 1020.26ZM1067.89 1227.31C1067.63 1228.18 1067.35 1229.04 1067.1 1229.92C1064.06 1240.58 1064.69 1254.59 1063.78 1265.76C1059.72 1315.37 1051.28 1354.98 1005.07 1382.02C1000.69 1384.58 996.205 1386.97 991.952 1389.75C1033.71 1399.95 1078.87 1401.68 1121.57 1398.41C1142.8 1396.65 1164.27 1391.48 1179.04 1374.93C1191.38 1361.11 1195.79 1342.29 1194.22 1324.13C1191.7 1295.16 1175.27 1268.59 1152.88 1250.55C1126.79 1229.55 1099.77 1227.06 1067.89 1227.31ZM1086.74 1049.87C1081.78 1101.27 1073.72 1152.36 1068.82 1203.76C1103.42 1205.39 1127.52 1206.28 1157.47 1185.52C1176.48 1167.82 1194.09 1148.18 1195.15 1120.7Q1195.21 1119.17 1195.2 1117.64Q1195.18 1116.11 1195.08 1114.58Q1194.98 1113.05 1194.8 1111.53Q1194.63 1110.01 1194.37 1108.5Q1194.11 1106.99 1193.78 1105.5Q1193.44 1104 1193.03 1102.53Q1192.61 1101.05 1192.12 1099.6Q1191.63 1098.15 1191.07 1096.73Q1190.5 1095.31 1189.86 1093.92Q1189.22 1092.52 1188.51 1091.17Q1187.8 1089.81 1187.02 1088.5Q1186.24 1087.18 1185.39 1085.91Q1184.54 1084.63 1183.62 1083.4Q1182.71 1082.18 1181.73 1081Q1180.75 1079.82 1179.71 1078.69Q1178.68 1077.57 1177.58 1076.5C1154.17 1053.46 1117.85 1050.03 1086.74 1049.87Z"/>
	<path fill="#B48633" d="M2266.68 688.569C2293.95 687.259 2321.33 688.318 2348.62 688.873Q2335.47 738.808 2325.04 789.384Q2314.61 839.959 2306.94 891.025C2291.4 992.67 2281.72 1095.91 2261.44 1196.72C2243.79 1284.46 2203.83 1362.7 2127.49 1412.79C2049.58 1463.92 1938.86 1486.5 1847.45 1466.87C1791.36 1454.83 1748.49 1423.14 1717.35 1375.31C1747.94 1357.19 1780.04 1341.83 1810.45 1323.25C1817.53 1341.61 1825.86 1360.3 1837.56 1376.23C1862.48 1410.15 1902.94 1426.84 1943.56 1432.47C1995.79 1439.71 2047.82 1429.79 2090.36 1397.97C2116.26 1375.94 2131.61 1344.54 2142.2 1312.78C2163.74 1248.14 2169.18 1179.16 2178.76 1112.09L2212.78 882.805C2219.83 835.565 2225.67 787.664 2234.71 740.788C2164.71 742.11 2085.66 740.477 2023.53 777.198C2000.02 791.092 1980.09 810.861 1973.7 838.277C1965.26 874.471 1980.87 907.519 1998.85 937.75C1967.69 960.384 1935.73 985.111 1902.44 1004.41C1895.98 986.693 1891.39 969.612 1889.96 950.733Q1889.77 948.349 1889.65 945.961Q1889.52 943.574 1889.46 941.184Q1889.39 938.793 1889.39 936.402Q1889.38 934.011 1889.44 931.621Q1889.49 929.231 1889.6 926.842Q1889.72 924.454 1889.89 922.069Q1890.06 919.685 1890.3 917.305Q1890.53 914.926 1890.82 912.553Q1891.12 910.18 1891.47 907.815Q1891.82 905.45 1892.23 903.094Q1892.64 900.739 1893.11 898.395Q1893.58 896.05 1894.11 893.718Q1894.64 891.387 1895.23 889.069Q1895.81 886.751 1896.46 884.448Q1897.1 882.146 1897.81 879.86Q1898.51 877.575 1899.27 875.307Q1900.03 873.04 1900.84 870.792Q1901.66 868.545 1902.53 866.318Q1903.4 864.092 1904.33 861.888Q1905.26 859.684 1906.24 857.504Q1907.22 855.324 1908.26 853.169Q1909.29 851.014 1910.38 848.886Q1911.47 846.758 1912.61 844.658Q1913.76 842.557 1914.95 840.486Q1916.15 838.416 1917.39 836.375Q1918.64 834.335 1919.94 832.326Q1921.23 830.318 1922.58 828.342Q1923.93 826.367 1925.32 824.425Q1926.72 822.484 1928.16 820.579Q1929.61 818.673 1931.1 816.804Q1932.59 814.936 1934.13 813.105Q1935.67 811.274 1937.25 809.482C2017.07 717.513 2151.52 696.453 2266.68 688.569Z"/>
	<path fill="#B48633" d="M2239.94 2372.66C2210.57 2380.76 2179.83 2385.86 2149.33 2382.53C2116.85 2378.99 2090.94 2364.17 2070.55 2338.85C2041.35 2302.59 2013.54 2249.33 2026.8 2201.6C2032.65 2180.54 2045.14 2160.87 2056.89 2142.68C2071.26 2120.42 2086.82 2098.21 2104.71 2078.64C2128.67 2052.45 2154.19 2030.47 2169.89 1997.95C2195.9 1944.09 2202.96 1878.92 2221.28 1821.94C2231.32 1790.72 2249.94 1760.47 2255.72 1728.09C2260 1704.09 2254.9 1679.93 2257.85 1655.92C2262 1622.26 2299.98 1573.24 2326.72 1553.72C2338.21 1545.33 2350.98 1544.57 2364.7 1546.99C2406.38 1554.34 2470.5 1588.89 2494.6 1624.36C2529.54 1627.13 2624.46 1654.06 2652.56 1674.24C2668.56 1681.44 2686.56 1692.69 2703.35 1696.93C2830 1715.84 3011.93 1889.52 3086.47 1990.73C3134.9 2056.5 3177.65 2146.04 3164.82 2229.99C3157.68 2276.7 3134.7 2311.88 3096.61 2339.63C2947 2448.64 2564.6 2400.25 2386.18 2379.71C2344.11 2374.87 2301.41 2372.7 2259.52 2367.04L2239.94 2372.66Z"/>
	<path fill="#FEFDFD" d="M2652.56 1674.24C2668.56 1681.44 2686.56 1692.69 2703.35 1696.93C2714.99 1723.23 2730.16 1747.64 2742.36 1773.63C2777.47 1848.39 2821.83 1969.4 2792.36 2049.62C2787.9 2061.76 2779.47 2075.79 2766.91 2080.97C2760.05 2083.79 2752.7 2082.63 2746.13 2079.66C2723.14 2069.25 2702.8 2040.71 2689.93 2019.85C2703 2020.62 2712.47 2032.93 2725.49 2033.88C2732.47 2034.39 2738.07 2031.67 2742.85 2026.75C2773.3 1995.41 2703.06 1809.65 2687.88 1770.72C2678.02 1745.44 2653.77 1699 2652.56 1674.24Z"/>
	<path fill="#E1B281" d="M2494.6 1624.36C2529.54 1627.13 2624.46 1654.06 2652.56 1674.24C2653.77 1699 2678.02 1745.44 2687.88 1770.72C2703.06 1809.65 2773.3 1995.41 2742.85 2026.75C2738.07 2031.67 2732.47 2034.39 2725.49 2033.88C2712.47 2032.93 2703 2020.62 2689.93 2019.85C2671.89 1998.17 2660.05 1969.9 2648.32 1944.4C2611.54 1864.45 2584.98 1761.56 2541.26 1689.23C2527.87 1667.08 2511.17 1646.45 2494.07 1627.08L2494.6 1624.36Z"/>
	<path fill="#FEFDFD" d="M2279.19 1775.53C2276.4 1769.65 2274.25 1764.34 2273.94 1757.76C2273.32 1744.39 2277.32 1731.16 2278.5 1717.92C2280.77 1692.57 2276.9 1666.96 2285.87 1642.52C2293.07 1622.9 2322.11 1576.96 2339.87 1567.83L2342.16 1569.78C2349.38 1575.83 2353.86 1578.29 2363.14 1580.4C2408.4 1590.74 2422.97 1614.19 2445.93 1652.16C2482.09 1711.97 2527.33 1795.96 2531.99 1865.96C2518.97 1892.9 2505.41 1919.75 2494.25 1947.53C2504.11 1971.55 2514.91 1998.31 2503.9 2024C2488.04 2060.97 2433.85 2075.24 2404.6 2100.78C2375.37 2126.3 2360.98 2165.07 2336.97 2195.03C2319.06 2217.39 2291.44 2232.44 2278.49 2258.44C2261.02 2293.5 2272.75 2331.74 2259.52 2367.04L2239.94 2372.66C2239.35 2372.23 2238.71 2371.86 2238.18 2371.37C2231.85 2365.6 2232.68 2356.61 2232.79 2348.83C2188.38 2326.14 2124.73 2314.94 2097.98 2268.36C2085.45 2246.55 2085.34 2222.95 2093.72 2199.67C2114.06 2143.16 2161.2 2099.12 2191.51 2047.92C2238.97 1967.74 2256.88 1864.91 2279.19 1775.53Z"/>
	<path fill="#E1B281" d="M2279.19 1775.53C2321.69 1802.84 2313.62 1819.55 2339.55 1853.67C2369.4 1892.95 2405.54 1906.28 2416.91 1959.77C2419.67 1972.72 2420.99 1985.97 2422.29 1999.14C2371.04 2032.36 2299.15 2074.92 2284.7 2139.26C2282.77 2147.87 2282.9 2156.45 2283.08 2165.2C2249.45 2187.7 2219.7 2214.21 2211.86 2255.91C2206.82 2282.73 2212.56 2305.67 2223.91 2329.84C2226.75 2335.89 2230.96 2342.48 2232.79 2348.83C2188.38 2326.14 2124.73 2314.94 2097.98 2268.36C2085.45 2246.55 2085.34 2222.95 2093.72 2199.67C2114.06 2143.16 2161.2 2099.12 2191.51 2047.92C2238.97 1967.74 2256.88 1864.91 2279.19 1775.53Z"/>
	<path fill="#B48633" d="M1516.42 1546.62C1528.56 1539.55 1539.89 1531.5 1551.7 1523.93C1568.95 1512.87 1579.3 1507.08 1600.04 1511.73C1645.69 1515.54 1740.81 1528.69 1780.2 1549.12C1817.56 1625.06 1854.35 1640.54 1927.81 1676.14Q1936.58 1692.01 1944.86 1708.14C1944.12 1719.84 1943.07 1731.73 1944.37 1743.43C1947.38 1770.54 1958.2 1795.55 1965.99 1821.46C1973.77 1847.33 1977.74 1875.92 1977.7 1902.91C1964.58 1924.97 1943.95 1943.1 1925.98 1961.25C1924.31 1993.49 1920.37 2025.47 1921.32 2057.82C1922.98 2114.43 1951.53 2220.19 1905.01 2262.87C1902.61 2265.08 1900 2267.06 1897.38 2269C1841.04 2295.06 1781.86 2317.1 1724.32 2340.41C1524.32 2421.44 1223.23 2539.16 1012.76 2552.24C949.419 2556.17 877.973 2550.3 828.53 2505.88C790.799 2471.98 775.652 2423.8 773.449 2374.29C768.882 2271.66 808.739 2161.36 864.99 2076.4C885.465 2045.47 909.282 2017.58 932.344 1988.62C947.236 1969.92 960.458 1949.28 976.7 1931.74C990.664 1916.67 1004.48 1906.36 1025.59 1905.75C1033.49 1896.72 1040.19 1886.91 1048.67 1878.35C1062.17 1863.43 1077.61 1850.01 1092.29 1836.26C1096.95 1824.16 1102.85 1812.59 1108.51 1800.94C1133.37 1761.51 1169.07 1731.39 1214.06 1717.37C1226.12 1713.61 1242.14 1711.9 1252.43 1704.81C1304.94 1659.73 1371.03 1631.43 1435.35 1607.55L1473.47 1593.36C1487.14 1577.13 1500.62 1560.85 1516.42 1546.62Z"/>
	<path fill="#E1B281" d="M1108.51 1800.94C1203.99 1805.46 1304.58 1819.49 1372.76 1893.71C1399.86 1923.21 1420.68 1960.69 1428.95 2000.04C1410.46 1982.09 1394.02 1962.08 1375.18 1944.39C1291.9 1866.18 1205.76 1833.05 1092.29 1836.26C1096.95 1824.16 1102.85 1812.59 1108.51 1800.94Z"/>
	<path fill="#FEFDFD" d="M1092.29 1836.26C1205.76 1833.05 1291.9 1866.18 1375.18 1944.39C1394.02 1962.08 1410.46 1982.09 1428.95 2000.04C1436.99 2015.71 1438.51 2029.67 1439.92 2046.86C1425.86 2047.01 1412.21 2047.52 1398.55 2043.56C1378.91 2008.59 1354.23 1977.79 1323.52 1951.89C1268.03 1905.08 1194.5 1876.27 1121.77 1874.2C1097.32 1873.51 1072.99 1876.23 1048.67 1878.35C1062.17 1863.43 1077.61 1850.01 1092.29 1836.26Z"/>
	<path fill="#E1B281" d="M1473.47 1593.36C1487.14 1577.13 1500.62 1560.85 1516.42 1546.62C1633.19 1593.95 1787.84 1676.25 1838.95 1797.13C1854.04 1832.81 1857.04 1868.08 1855.38 1906.41C1845.85 1863.17 1822.69 1827.99 1795.14 1793.94C1716.88 1697.19 1600.06 1606.84 1473.47 1593.36Z"/>
	<path fill="#FEFDFD" d="M1473.47 1593.36C1600.06 1606.84 1716.88 1697.19 1795.14 1793.94C1822.69 1827.99 1845.85 1863.17 1855.38 1906.41C1854.24 1915.76 1853.04 1922.72 1844.95 1928.64C1831.03 1938.83 1807.43 1936.47 1791.2 1934.34C1791.48 1912.21 1789.12 1890.63 1782.09 1869.56C1734.91 1728.24 1556.48 1667.94 1435.35 1607.55L1473.47 1593.36Z"/>
	<path fill="#FEFDFD" d="M1737.6 1557.92C1685.07 1541.28 1627.64 1534.16 1576.97 1512.65C1577.69 1512.37 1578.38 1511.95 1579.14 1511.82C1585.23 1510.78 1593.69 1511.81 1600.04 1511.73C1645.69 1515.54 1740.81 1528.69 1780.2 1549.12C1817.56 1625.06 1854.35 1640.54 1927.81 1676.14Q1936.58 1692.01 1944.86 1708.14C1944.12 1719.84 1943.07 1731.73 1944.37 1743.43C1947.38 1770.54 1958.2 1795.55 1965.99 1821.46C1973.77 1847.33 1977.74 1875.92 1977.7 1902.91C1964.58 1924.97 1943.95 1943.1 1925.98 1961.25C1924.31 1993.49 1920.37 2025.47 1921.32 2057.82C1922.98 2114.43 1951.53 2220.19 1905.01 2262.87C1902.61 2265.08 1900 2267.06 1897.38 2269C1895.64 2266.3 1893.96 2263.65 1892.51 2260.78C1857.35 2191.43 1875.61 2120.77 1898.1 2051.38C1886.76 2037.02 1876.29 2022.73 1874.3 2003.89C1870.04 1963.7 1909.96 1931.8 1932.33 1903.13C1944.38 1887.67 1954.31 1868.99 1951.4 1848.79C1946.86 1817.3 1916.32 1796.32 1892.44 1779.33C1895.51 1774.42 1898.28 1769.46 1900.54 1764.11C1909.69 1742.44 1904.73 1724.73 1896.53 1703.94C1834.32 1663.89 1783.64 1615.48 1737.6 1557.92Z"/>
	<path fill="#E1B281" d="M1048.67 1878.35C1072.99 1876.23 1097.32 1873.51 1121.77 1874.2C1194.5 1876.27 1268.03 1905.08 1323.52 1951.89C1354.23 1977.79 1378.91 2008.59 1398.55 2043.56Q1352.59 2040.44 1306.7 2036.41C1239.63 2030.18 1106.63 2015.82 1060.87 1965.21C1045.97 1948.73 1042.09 1925.32 1027.48 1907.97L1025.59 1905.75C1033.49 1896.72 1040.19 1886.91 1048.67 1878.35Z"/>
	<path fill="#E1B281" d="M1252.43 1704.81C1304.94 1659.73 1371.03 1631.43 1435.35 1607.55C1556.48 1667.94 1734.91 1728.24 1782.09 1869.56C1789.12 1890.63 1791.48 1912.21 1791.2 1934.34C1693.4 1908.06 1614.93 1850.12 1532.44 1794.35C1486.93 1763.57 1440.37 1732.36 1387.21 1716.43C1366.73 1710.29 1344.77 1706 1323.4 1704.86C1306.9 1703.97 1264.11 1711.09 1252.43 1704.81Z"/>
</svg>
