<?xml version="1.0" encoding="utf-8"?>
<!-- Generator: Adobe Illustrator 27.2.0, SVG Export Plug-In . SVG Version: 6.00 Build 0)  -->
<svg version="1.1" id="Layer_1" xmlns="http://www.w3.org/2000/svg" xmlns:xlink="http://www.w3.org/1999/xlink" x="0px" y="0px"
	 viewBox="0 0 2587 1866" style="enable-background:new 0 0 2587 1866;" xml:space="preserve">
<style type="text/css">
	.st0{fill:#B48633;}
	.st1{fill:#FEFDFD;}
	.st2{fill:#E1B281;}
</style>
<g>
	<path class="st0" d="M2494.5,488.3c3.2,0.7,7.3,1.4,10.2,3c33.2,18.7-13.3,121.2-0.6,154.5c1.5,4,2.4,4.1,6,5.8
		c15-3.4,15.1-22.7,26.3-30.8c2.6-1.9,2.1-1.1,5.7-0.2l1.4,3.7c-0.8,4.8-3,8.5-5.6,12.6c-8.3,12.7-29.9,37.7-45.4,39.2
		c-4.5,0.4-8-0.2-11.4-3.5c-19.4-18.7,5.8-107.8,6.1-135.4c0.1-8-0.6-15.3-6.4-21.3c-6.2-1.9-9.2-1.9-15.2,0.9
		c-28,13-47.2,39.9-57.6,68c-7.5,26-10.8,52.4-14.1,79.1c-10,3.2-19.7,7.9-29.4,12.1c6.3-44.2,15.4-92,15.4-136.6
		c0-8.5-0.3-15.1-6.4-21.3c-15,0.9-17.2,18.2-28.9,22.1c0-0.6-0.1-1.3-0.1-2c0.8-10.9,11.2-25.2,18.8-32.7
		c6.7-6.6,22.6-18.3,32.7-17.1c4.5,0.5,7,3.2,9.5,6.7c11,15.7,0.7,56-2.3,74.1C2428.2,534.9,2451.7,500.7,2494.5,488.3z"/>
	<g>
		<path class="st0" d="M1268.1,1203.2c12.7-4.3,22.3-7,34.9-0.4c8,4.2,13,11.9,15.5,20.4c1.2,3.9,1.4,7.8,1.3,11.9
			c-1.3-2.2-1.2-2.1-3-4.5c-7.5-10-18.6-18-31.3-19c-14-1.1-23.3,5.2-33.4,14.1C1256.9,1217.3,1261.6,1210.6,1268.1,1203.2z"/>
		<path class="st1" d="M1252,1225.8c10.1-8.9,19.4-15.2,33.4-14.1c12.7,1,23.8,9,31.3,19c1.8,2.4,1.7,2.3,3,4.5
			c-4.3-0.4-2.5,0-6.5-1.2C1292.9,1228,1270.3,1231.9,1252,1225.8z"/>
		<path class="st0" d="M1663.7,423.5c9.3,2.8,14.1,12.3,19,19.9c-6.7,7.2-13.9,14-20.8,20.9c-6.4-2.5-14.6-15.4-19.2-21
			C1649.3,436.1,1656.4,429.8,1663.7,423.5z"/>
		<path class="st0" d="M1603.7,423.5c8.1,5.5,13,12.5,18.5,20.3c-7.5,7.6-15.4,14.8-23.1,22.2l-18.1-21.6
			C1588.2,437.1,1596.1,430.4,1603.7,423.5z"/>
		<path class="st0" d="M1302.7,386l1.7,2.2c0.8,3.8,1.5,7.1,0.6,11c-4.4,19-32.1,36.9-47.3,47.3l-1.9-2.9
			c0.7-12.2,7.4-23.7,13.1-34.3C1280.7,402.2,1291.7,394.6,1302.7,386z"/>
		<path class="st0" d="M1221,1503.7c-4.5,1.1-8.4,1.6-12.9,0.4c-6-1.5-10.7-4.6-13.9-10.1c-4.5-7.8-4.4-18-2.2-26.4
			c2.3-8.7,7-17,15.1-21.4c4.3-2.3,9.2-4.7,14.1-3.5c8.7,12.7,10.9,25.3,8.1,40.5C1228,1490.7,1225.1,1497.4,1221,1503.7z"/>
		<path class="st1" d="M1221,1503.7c-0.5-0.4-1-0.8-1.4-1.3c-7.7-8.2-9.8-23-9-33.8c0.7-9.3,3.3-19.7,10.7-25.9
			c8.7,12.7,10.9,25.3,8.1,40.5C1228,1490.7,1225.1,1497.4,1221,1503.7z"/>
		<path class="st0" d="M1317.8,1759.8c4.2,1.7,8.6,3.9,12.5,6.2c0.5,0.3,1,0.6,1.4,0.9c0.5,0.3,0.9,0.6,1.4,1c0.5,0.3,0.9,0.7,1.3,1
			c0.4,0.4,0.9,0.7,1.3,1.1c0.4,0.4,0.8,0.8,1.2,1.2c0.4,0.4,0.8,0.8,1.2,1.2s0.7,0.8,1.1,1.3c0.4,0.4,0.7,0.9,1,1.3
			c0.3,0.5,0.6,0.9,1,1.4c0.3,0.5,0.6,0.9,0.9,1.4c0.3,0.5,0.5,1,0.8,1.5c0.3,0.5,0.5,1,0.7,1.5c0.2,0.5,0.5,1,0.7,1.6
			c0.2,0.5,0.4,1,0.6,1.6c0.2,0.5,0.3,1.1,0.5,1.6c0.2,0.5,0.3,1.1,0.4,1.6c1.9,8.5,0.1,17.3-4.6,24.5
			c-7.4,11.4-17.7,15.3-30.5,17.6c-3.5-1-7-1.9-10.2-3.9c-6.7-4.2-18.7-17.7-19.6-25.7c-1.7-14.6,16.2-15.5,25-22.8
			c4.6-3.8,7.6-9.6,10.6-14.7L1317.8,1759.8z"/>
		<path class="st0" d="M1249.6,472.6c4.7-0.3,11.1-0.7,14.6,2.9c17.4,17.4-10.3,121.8-9.5,149.4c0.2,4.5,0.4,6.7,3.7,10
			c11.9-0.8,23.3-23.2,32.4-31l2.7,0.7c0.4,2.4,0.4,4.2-0.4,6.5c-6.8,20.1-28.1,36.7-46.2,46.6c-5.6,0.3-11.4,1-16.1-2.8
			c-24.9-19.9,19.1-126.6,10.3-150.3c-1.9-5.1-2.9-5.3-7.6-7.1c-13.2,3.1-18.8,19.9-28.7,28.3l-2.4-1.2c-1-3.2-1.7-4-0.8-7.4
			C1206.5,499.2,1234.2,480.8,1249.6,472.6z"/>
		<path class="st0" d="M1972.3,490.4c16.1-1.3,31.9,1.4,47.7,4.3c-7,7.7-14.8,14.7-22.3,21.8c-10.5-5.9-20.5-11.6-33-9.9
			c-7.6,1-13.7,3.3-18.5,9.5c-7.7,24.6,52.7,65.4,57.4,96.2c1.8,12-1.7,23.4-8.8,33.1c-14.4,19.7-36.8,26.2-59.7,30.2
			c-16.9-0.8-31-4.5-46.8-10.1l27.1-20.4c1.7,1.1,3.5,2.1,5.3,3.1c11.2,6.5,27,15.5,40.3,11.3c7.2-2.3,15.6-6.8,18.6-14.2
			c9.8-24.4-47.4-73.1-55.7-99.8c-2.9-9.3-3.6-20.2,1.4-28.9C1933.7,501.9,1956.5,494.3,1972.3,490.4z"/>
		<path class="st0" d="M2112.8,490.6c15.2-0.7,30.3,2,45.3,4.5l-23,21.2c-7.4-3.8-14.9-7.6-23.2-9.1c-9-1.7-18.3-0.6-26,4.4
			c-12.8,24.4,50.9,70.2,54.9,104.6c1.3,11.2-1.9,22.6-9.4,31.2c-17.2,19.5-41.9,27.4-67.1,28.5c-13.6-2-25.9-5.8-38.8-10.4
			c9.8-7,18.9-14.4,28-22.2c11.4,9.6,23,17.8,38.7,16.3c8.1-0.7,17.1-4.1,21.9-11c16.8-24.2-48.1-80-55.4-107.7
			c-2.2-8.4-2.4-17.3,2.6-24.7C2071.1,501.6,2096.6,493.5,2112.8,490.6z"/>
		<path class="st0" d="M1086,473.2c2.1,0,3.9,0,6,0.2c4.4,0.5,8.1,2.9,10.7,6.6c10.1,14.8,0.8,51.5-1.5,68.9
			c11.8-20.3,23.9-42.7,41.7-58.5c11.7-10.4,26.4-18.2,42.4-16.7c5.6,0.5,9.9,1.5,13.5,5.9c-1.2,9.9-15,19.7-22,26.1
			c-9.5-2.5-16.7-4.2-26.1-0.2c-25,10.7-38.7,41.3-48.8,64.9c-7.7,25.1-8.6,51.5-12.6,77.3c-8.9,3.1-18.3,5.1-27.5,7.4
			c2.3-37.1,19.8-120.5,14.6-151.6c-0.7-4.1-1.3-4.6-4.4-6.9c-13.1,2.6-28.1,25.5-37.6,35.4c1.3-5.8,2.5-11.7,4.5-17.3
			C1046.9,493.1,1065.9,481.6,1086,473.2z"/>
		<path class="st0" d="M980.2,473.2c7-0.5,13.3-0.5,20,1.6c6.7,2.1,13.5,5.2,16.2,12.2c4.7,12.4-3.4,29.1-9.6,39.7
			c-18.4,31.9-50.8,52-85.6,61.5c1.8,9.5,3.7,19.1,8.1,27.9c3.9,8,9.7,16.5,18.6,19.1c26.7,7.9,42.6-26.7,61.3-37.6l3.3,1.2l1.2,6
			c-12.5,19.1-28.8,37.6-49.4,48.2c-11.9,6.1-25.1,8.7-38,4c-12.5-4.6-21.5-15.3-26.4-27.4c-10.5-25.9-4.4-56.4,6.3-81.3
			C920.9,514.1,945.5,487,980.2,473.2z M961.5,497.9c-17.1,11.1-34.7,30.7-38.2,51.6c-1,6.1,0.6,9.3,4.2,14.1
			c8.7,4.2,15.5,2.5,24.6,0.5c16.8-8.1,31.2-18.5,37.6-36.9c2-5.7,2.9-12.2-0.1-17.8c-3.2-6.1-10.6-9.7-17.2-10.8
			C968.9,498.1,965.1,498,961.5,497.9z"/>
		<path class="st0" d="M1837.1,488.3c4.2,0.2,8.7,0.5,12.2,3.2c24.4,18.9-10.1,119.8-6.9,150.8c0.5,5.1,1.1,7,5,10.1
			c12.4-1.4,23.8-22.2,34.1-29.6l1.2,2.6c-1.1,6.1-2.5,10.6-5.8,15.9c-8.4,13.4-27.2,31.4-43.6,33.7c-4.4,0.6-8.9-0.1-12.3-3.3
			c-19.6-18.6,10.1-112.5,5.5-142.4c-0.9-6.1-2.5-10.2-7.6-14.1c-4.9-1.4-8.4-0.5-13,1.5c-31,14.1-47.6,43.3-58.6,73.7
			c-6.8,24.9-10,49.5-12.5,75.1c-9.8,2.7-19.3,6.4-28.8,10.1l0.3-2.1c3.3-24.2,22.2-147.3,12.5-160.1c-15.9,0.5-24.5,28.3-37.7,29.2
			c-0.6-8.2,4-15.2,8.7-21.5c8.5-11.2,29.9-31.1,44.8-31.3c4.7-0.1,8.3,0.7,11.7,4.3c11.7,12.7,1.4,54.9-1,70.9
			C1771.5,530.5,1794.1,501,1837.1,488.3z"/>
		<path class="st0" d="M2267.1,489.9c10.5-0.9,20.6-0.7,30.4,3.4c10.7,4.6,18.2,12.7,21.9,23.8c9.2,27.1-0.6,63.8-12.8,88.7
			c-15.6,31.6-41.4,57.8-75.1,69.2c-11.1,0.9-20.9,0.9-31.3-3.7c-11-4.9-18.4-13.2-22.2-24.6c-9.5-27.9,1.6-64.5,14.6-89.6
			C2208.6,526.1,2233.2,500.6,2267.1,489.9z M2251.4,510.8c-18.4,7.7-28.9,18.7-36.9,37.1c-9.9,22.8-14.6,58.1-4.8,81.4
			c3.9,9.2,11.1,18.1,20.6,21.8c4.6,1.8,10.1,2.4,15,2.8c17.8-5.8,27.4-14.7,35.7-31.5c11.5-23.2,16.2-60.1,7.7-84.9
			c-3.4-9.9-9.9-19.1-19.6-23.7C2263.6,511.2,2257.4,510.6,2251.4,510.8z"/>
		<path class="st0" d="M1606.4,489.6c10.6-0.8,21.1-1.2,31.1,3.1c10.8,4.7,18.4,12.4,22.5,23.6c9.1,24.9,2.6,57.1-7.8,80.7
			c-15.3,34.6-41.3,63.3-76.9,77c-10.1,1.3-20.5,2.1-30.3-1.3c-11-3.8-19.4-11-24.1-21.7c-10.3-23.3-3.4-55.1,5.6-77.9
			C1542,533.7,1567.5,506.2,1606.4,489.6z M1591,510.7c-18.9,8-28.1,19.7-36,38.6c-9.5,23-13.6,57.2-3.6,80.5
			c4.3,10,12.2,18.8,22.7,22.2c4.3,1.4,9.4,1.8,13.9,2c18.9-7.8,29.4-19.1,37.3-38.1c9.9-23.8,13.2-59.7,2.5-83.6
			c-4-8.8-11.5-17.3-20.9-20.6C1602.2,510.1,1596.1,510.3,1591,510.7z"/>
		<path class="st0" d="M625.9,477.1c12.6-1.4,38-4,48.9,2.7c7.7,4.8-24.4,119.9-19.7,145.6c0.8,4.5,1.5,6.4,5.4,9
			c16-2.5,21.6-26.3,35-33.4l1.2,3.7c-2.3,9.6-9.5,19.5-15.6,27.2c-7.9,10.1-23.5,27.7-36.9,27.9c-4.9,0.1-8.9-1-12.1-4.8
			c-11.3-13.3-4.7-38-2.2-53.3l4.5-21.5c-19,27.4-44.9,66.5-78.8,76.6c-7.9,2.4-16.9,2.5-24.2-1.9c-7.6-4.6-12-12.7-14-21.2
			c-7.5-30.1,6.2-69.9,21.9-95.5C559.6,504.6,588.1,486.3,625.9,477.1z M599.5,495.7c-25.5,13.8-38.2,37.2-46.4,64.1
			c-5.2,17-11.5,45.6-3.1,62.1c1.9,3.7,4.9,6.8,9,8.1c8.4,2.6,17.8-2.7,24.6-7.3c26.1-23.1,41.8-46.6,53.5-79.5
			c3-8.5,7-18.1,7.7-27.2c0.3-3.9,0-8.5-2.5-11.7c-6.8-8.8-27.7-9.2-37.7-8.9C602.9,495.4,601.2,495.5,599.5,495.7z"/>
		<path class="st0" d="M829,475.4c14.6-1.2,28.7,0.8,43,3.5c-17.6,72.8-9.1,148.4-24.9,221.1c-8.4,38.6-28.5,69.7-62.1,90.9
			c-26.1,16.4-55.4,24.3-86,17.5c-8.4-3.9-16.1-9.3-22.3-16.2c-11.4-12.7-15.7-28.4-14.2-45.3c3.5-39.7,32.8-68.9,61.1-93.6
			c-6.5-11.1-11.1-20.6-12.8-33.5c-4.3-32.4,10.2-66.5,29.5-91.9C763,497.9,791.9,480.5,829,475.4z M826.5,583.7
			c-18.4,27.9-43.1,65.7-78.5,72.7c-5.5,1.1-11.4,1.3-17,1.3c-19.3,22-44.8,49.5-42.4,81.3c1.2,15,8.3,26.3,18,37.3
			c17,10.8,35.3,18.4,55.8,13.4c17.9-4.4,32.2-18.1,41.1-33.8c17.8-31.4,29-132.8,25.1-169.5L826.5,583.7z M798.8,494.1
			c-21.7,7.9-34.1,24.4-43.4,44.8c-9.4,20.6-20.2,56.5-11.4,78.5c2,4.9,5,8.7,10,10.7c7.1,2.8,15.3-0.6,21.6-4
			c42.4-33.7,55.9-70.4,63.2-122.9C825.5,498.4,812.3,495.1,798.8,494.1z"/>
		<path class="st0" d="M349.8,352.8c28.6-2,59.9,0.7,87.4,9.1c21.1,6.5,41.6,18.2,51.8,38.6c8.1,16.3,8,35.4,2.3,52.5
			c-13.5,40.9-50.6,59.8-86.2,78.2c27,11,51,21.3,69.1,45.6c14.3,19.2,21.8,42.9,17.8,66.8c-4.9,28.8-24,51.7-47.6,67.6
			c-74.5,50.6-203.1,40.7-288.5,25c11.2-13,22.7-25.7,34.4-38.1c13.7,3.6,29.3,8.6,43.5,7.1c3-2.2,5.9-4.5,8.8-6.9
			c9.2-7.5,15.6-16.5,19.8-27.6c14.8-39.4,16.1-86.3,20.7-128c5.8-53.2,11.3-106.3,16.6-159.6c-17.4,2.5-34.7,5.5-51.3,11.4
			c-28.1,9.9-55.9,27.4-68.6,55.5c-12.7,28-6.1,54.4,4.3,81.6c-15.1,12.7-29.9,25.8-44.4,39.1c-1.9-8.8-4-17.5-4.8-26.4
			c-4.1-41.1,5.4-81.6,31.9-113.9C212.3,375,281.7,359.6,349.8,352.8z M328.4,552.9c-0.3,0.8-0.5,1.7-0.8,2.5
			c-2.9,10.3-2.3,23.8-3.2,34.6c-3.9,47.9-12.1,86.2-56.7,112.4c-4.2,2.5-8.6,4.8-12.7,7.5c40.4,9.9,84,11.5,125.3,8.4
			c20.5-1.7,41.3-6.7,55.5-22.7c11.9-13.4,16.2-31.5,14.7-49.1c-2.4-28-18.3-53.7-40-71.1C385.3,555.1,359.2,552.7,328.4,552.9z
			 M346.6,381.4c-4.8,49.7-12.6,99.1-17.3,148.7c33.4,1.6,56.7,2.4,85.7-17.6c18.4-17.1,35.4-36.1,36.4-62.6c0-1,0.1-2,0-3
			c0-1-0.1-2-0.1-3c-0.1-1-0.2-2-0.3-2.9c-0.1-1-0.2-2-0.4-2.9c-0.2-1-0.4-1.9-0.6-2.9c-0.2-1-0.5-1.9-0.7-2.9
			c-0.3-1-0.6-1.9-0.9-2.8c-0.3-0.9-0.7-1.9-1-2.8c-0.4-0.9-0.8-1.8-1.2-2.7c-0.4-0.9-0.8-1.8-1.3-2.7c-0.5-0.9-0.9-1.7-1.4-2.6
			c-0.5-0.9-1-1.7-1.6-2.5c-0.5-0.8-1.1-1.6-1.7-2.4c-0.6-0.8-1.2-1.6-1.8-2.3c-0.6-0.8-1.3-1.5-2-2.2c-0.7-0.7-1.3-1.4-2.1-2.1
			C411.8,384.9,376.7,381.6,346.6,381.4z"/>
		<path class="st0" d="M1487,32.3c26.4-1.3,52.8-0.2,79.2,0.3c-8.5,32.2-16.1,64.6-22.8,97.1c-6.7,32.6-12.6,65.3-17.5,98.2
			c-15,98.2-24.4,198-44,295.4c-17.1,84.8-55.7,160.4-129.5,208.8c-75.3,49.4-182.3,71.2-270.7,52.3
			c-54.2-11.6-95.6-42.3-125.7-88.5c29.6-17.5,60.6-32.4,90-50.3c6.8,17.7,14.9,35.8,26.2,51.2c24.1,32.8,63.2,48.9,102.4,54.4
			c50.5,7,100.8-2.6,141.9-33.3c25-21.3,39.9-51.6,50.1-82.3c20.8-62.5,26.1-129.1,35.3-194L1435,220c6.8-45.7,12.5-91.9,21.2-137.3
			c-67.7,1.3-144.1-0.3-204.1,35.2c-22.7,13.4-42,32.5-48.2,59c-8.2,35,6.9,66.9,24.3,96.1c-30.1,21.9-61,45.8-93.2,64.4
			c-6.2-17.1-10.7-33.6-12.1-51.9c-0.1-1.5-0.2-3.1-0.3-4.6c-0.1-1.5-0.1-3.1-0.2-4.6c0-1.5-0.1-3.1-0.1-4.6c0-1.5,0-3.1,0-4.6
			c0-1.5,0.1-3.1,0.2-4.6c0.1-1.5,0.2-3.1,0.3-4.6c0.1-1.5,0.2-3.1,0.4-4.6c0.1-1.5,0.3-3.1,0.5-4.6c0.2-1.5,0.4-3.1,0.6-4.6
			s0.5-3,0.7-4.6c0.3-1.5,0.5-3,0.9-4.5c0.3-1.5,0.6-3,1-4.5c0.3-1.5,0.7-3,1.1-4.5c0.4-1.5,0.8-3,1.2-4.5c0.4-1.5,0.8-3,1.3-4.4
			c0.5-1.5,0.9-2.9,1.4-4.4c0.5-1.5,1-2.9,1.5-4.4c0.5-1.4,1.1-2.9,1.6-4.3c0.6-1.4,1.1-2.9,1.7-4.3c0.6-1.4,1.2-2.8,1.8-4.2
			c0.6-1.4,1.3-2.8,2-4.2c0.7-1.4,1.3-2.8,2-4.1c0.7-1.4,1.4-2.7,2.2-4.1c0.7-1.4,1.5-2.7,2.3-4c0.8-1.3,1.6-2.7,2.4-4
			c0.8-1.3,1.6-2.6,2.5-3.9c0.8-1.3,1.7-2.6,2.6-3.9c0.9-1.3,1.8-2.5,2.6-3.8c0.9-1.3,1.8-2.5,2.7-3.7c0.9-1.2,1.9-2.4,2.8-3.6
			c1-1.2,1.9-2.4,2.9-3.6c1-1.2,2-2.3,3-3.5C1245.8,60.2,1375.7,39.9,1487,32.3z"/>
		<path class="st0" d="M1461.2,1659.8c-28.4,7.8-58.1,12.8-87.6,9.5c-31.4-3.4-56.4-17.7-76.1-42.2c-28.2-35-55.1-86.5-42.3-132.6
			c5.7-20.4,17.7-39.4,29.1-56.9c13.9-21.5,28.9-43,46.2-61.9c23.2-25.3,47.8-46.6,63-78c25.1-52.1,32-115,49.7-170.1
			c9.7-30.2,27.7-59.4,33.3-90.7c4.1-23.2-0.8-46.5,2.1-69.7c4-32.5,40.7-79.9,66.6-98.8c11.1-8.1,23.4-8.8,36.7-6.5
			c40.3,7.1,102.3,40.5,125.5,74.8c33.8,2.7,125.5,28.7,152.7,48.2c15.5,7,32.9,17.8,49.1,21.9c122.4,18.3,298.2,186.1,370.3,283.9
			c46.8,63.6,88.1,150.1,75.7,231.2c-6.9,45.1-29.1,79.1-65.9,106c-144.6,105.4-514.2,58.6-686.6,38.7
			c-40.7-4.7-81.9-6.8-122.4-12.2L1461.2,1659.8z"/>
		<path class="st1" d="M1860,984.8c15.5,7,32.9,17.8,49.1,21.9c11.2,25.4,25.9,49,37.7,74.1c33.9,72.3,76.8,189.2,48.3,266.7
			c-4.3,11.7-12.5,25.3-24.6,30.3c-6.6,2.7-13.7,1.6-20.1-1.3c-22.2-10.1-41.9-37.6-54.3-57.8c12.6,0.7,21.8,12.6,34.4,13.6
			c6.7,0.5,12.2-2.1,16.8-6.9c29.4-30.3-38.5-209.8-53.1-247.4C1884.6,1053.7,1861.2,1008.8,1860,984.8z"/>
		<path class="st2" d="M1707.3,936.6c33.8,2.7,125.5,28.7,152.7,48.2c1.2,23.9,24.6,68.8,34.1,93.2c14.7,37.6,82.6,217.1,53.1,247.4
			c-4.6,4.8-10,7.4-16.8,6.9c-12.6-0.9-21.7-12.8-34.4-13.6c-17.4-21-28.9-48.3-40.2-72.9c-35.5-77.3-61.2-176.7-103.5-246.6
			c-12.9-21.4-29.1-41.3-45.6-60.1L1707.3,936.6z"/>
		<path class="st1" d="M1499.1,1082.7c-2.7-5.7-4.8-10.8-5.1-17.2c-0.6-12.9,3.3-25.7,4.4-38.5c2.2-24.5-1.5-49.2,7.1-72.9
			c7-19,35-63.4,52.2-72.2l2.2,1.9c7,5.8,11.3,8.2,20.3,10.3c43.7,10,57.8,32.7,80,69.4c34.9,57.8,78.7,139,83.2,206.6
			c-12.6,26-25.7,52-36.5,78.8c9.5,23.2,20,49.1,9.3,73.9c-15.3,35.7-67.7,49.5-96,74.2c-28.3,24.7-42.2,62.1-65.4,91.1
			c-17.3,21.6-44,36.2-56.5,61.3c-16.9,33.9-5.5,70.8-18.3,105l-18.9,5.4c-0.6-0.4-1.2-0.8-1.7-1.2c-6.1-5.6-5.3-14.3-5.2-21.8
			c-42.9-21.9-104.4-32.8-130.3-77.8c-12.1-21.1-12.2-43.9-4.1-66.4c19.7-54.6,65.2-97.2,94.5-146.7
			C1460.3,1268.5,1477.6,1169.1,1499.1,1082.7z"/>
		<path class="st2" d="M1499.1,1082.7c41.1,26.4,33.3,42.5,58.3,75.5c28.8,38,63.8,50.8,74.8,102.5c2.7,12.5,3.9,25.3,5.2,38
			c-49.5,32.1-119,73.2-133,135.4c-1.9,8.3-1.7,16.6-1.6,25.1c-32.5,21.7-61.3,47.4-68.8,87.7c-4.9,25.9,0.7,48.1,11.6,71.4
			c2.7,5.8,6.8,12.2,8.6,18.4c-42.9-21.9-104.4-32.8-130.3-77.8c-12.1-21.1-12.2-43.9-4.1-66.4c19.7-54.6,65.2-97.2,94.5-146.7
			C1460.3,1268.5,1477.6,1169.1,1499.1,1082.7z"/>
		<path class="st0" d="M761.9,861.5c11.7-6.8,22.7-14.6,34.1-21.9c16.7-10.7,26.7-16.3,46.7-11.8c44.1,3.7,136.1,16.4,174.1,36.1
			c36.1,73.4,71.7,88.4,142.7,122.8c5.7,10.2,11.1,20.5,16.5,30.9c-0.7,11.3-1.7,22.8-0.5,34.1c2.9,26.2,13.4,50.4,20.9,75.4
			c7.5,25,11.4,52.6,11.3,78.7c-12.7,21.3-32.6,38.8-50,56.4c-1.6,31.2-5.4,62.1-4.5,93.3c1.6,54.7,29.2,156.9-15.8,198.2
			c-2.3,2.1-4.8,4-7.4,5.9c-54.5,25.2-111.6,46.5-167.3,69c-193.3,78.3-484.3,192.1-687.7,204.7c-61.2,3.8-130.3-1.9-178.1-44.8
			c-36.5-32.8-51.1-79.3-53.2-127.2c-4.4-99.2,34.1-205.8,88.5-287.9c19.8-29.9,42.8-56.8,65.1-84.8c14.4-18.1,27.2-38,42.9-55
			c13.5-14.6,26.8-24.5,47.3-25.1c7.6-8.7,14.1-18.2,22.3-26.5c13-14.4,28-27.4,42.2-40.7c4.5-11.7,10.2-22.9,15.7-34.1
			c24-38.1,58.5-67.2,102-80.8c11.7-3.6,27.1-5.3,37.1-12.1c50.8-43.6,114.6-70.9,176.8-94l36.8-13.7
			C733.6,891,746.7,875.3,761.9,861.5z"/>
		<path class="st2" d="M367.7,1107.3c92.3,4.4,189.5,17.9,255.4,89.7c26.2,28.5,46.3,64.7,54.3,102.8c-17.9-17.3-33.8-36.7-52-53.8
			c-80.5-75.6-163.7-107.6-273.4-104.5C356.5,1129.7,362.2,1118.5,367.7,1107.3z"/>
		<path class="st1" d="M352,1141.4c109.7-3.1,192.9,28.9,273.4,104.5c18.2,17.1,34.1,36.4,52,53.8c7.8,15.1,9.2,28.6,10.6,45.2
			c-13.6,0.1-26.8,0.6-40-3.2c-19-33.8-42.8-63.6-72.5-88.6c-53.6-45.2-124.7-73.1-195-75.1c-23.6-0.7-47.1,2-70.7,4
			C322.9,1167.7,337.8,1154.7,352,1141.4z"/>
		<path class="st2" d="M720.4,906.7c13.2-15.7,26.2-31.4,41.5-45.2c112.9,45.7,262.3,125.3,311.7,242.1
			c14.6,34.5,17.5,68.6,15.9,105.6c-9.2-41.8-31.6-75.8-58.2-108.7C955.7,1007,842.8,919.7,720.4,906.7z"/>
		<path class="st1" d="M720.4,906.7c122.3,13,235.3,100.3,310.9,193.8c26.6,32.9,49,66.9,58.2,108.7c-1.1,9-2.3,15.8-10.1,21.5
			c-13.5,9.8-36.3,7.6-51.9,5.5c0.3-21.4-2-42.2-8.8-62.6C973.1,1037,800.6,978.8,683.6,920.4L720.4,906.7z"/>
		<path class="st1" d="M975.7,872.4c-50.8-16.1-106.3-23-155.2-43.8c0.7-0.3,1.4-0.7,2.1-0.8c5.9-1,14.1,0,20.2-0.1
			c44.1,3.7,136.1,16.4,174.1,36.1c36.1,73.4,71.7,88.4,142.7,122.8c5.7,10.2,11.1,20.5,16.5,30.9c-0.7,11.3-1.7,22.8-0.5,34.1
			c2.9,26.2,13.4,50.4,20.9,75.4c7.5,25,11.4,52.6,11.3,78.7c-12.7,21.3-32.6,38.8-50,56.4c-1.6,31.2-5.4,62.1-4.5,93.3
			c1.6,54.7,29.2,156.9-15.8,198.2c-2.3,2.1-4.8,4-7.4,5.9c-1.7-2.6-3.3-5.2-4.7-7.9c-34-67-16.3-135.3,5.4-202.4
			c-11-13.9-21.1-27.7-23-45.9c-4.1-38.8,34.5-69.7,56.1-97.4c11.6-14.9,21.2-33,18.4-52.5c-4.4-30.4-33.9-50.7-57-67.1
			c3-4.7,5.6-9.5,7.8-14.7c8.8-20.9,4-38.1-3.9-58.2C1069.2,974.8,1020.2,928.1,975.7,872.4z"/>
		<path class="st2" d="M309.8,1182.1c23.5-2,47-4.7,70.7-4c70.3,2,141.4,29.8,195,75.1c29.7,25,53.5,54.8,72.5,88.6
			c-29.6-2-59.2-4.3-88.8-6.9c-64.8-6-193.4-19.9-237.6-68.8c-14.4-15.9-18.2-38.6-32.3-55.3l-1.8-2.1
			C295.2,1199.9,301.6,1190.4,309.8,1182.1z"/>
		<path class="st2" d="M506.8,1014.4c50.8-43.6,114.6-70.9,176.8-94c117.1,58.4,289.5,116.6,335.1,253.2c6.8,20.4,9.1,41.2,8.8,62.6
			c-94.5-25.4-170.4-81.4-250.1-135.3c-44-29.7-89-59.9-140.4-75.3c-19.8-5.9-41-10.1-61.7-11.2
			C559.4,1013.6,518.1,1020.5,506.8,1014.4z"/>
	</g>
</g>
</svg>
