<?xml version="1.0" encoding="utf-8"?>
<!-- Generator: Adobe Illustrator 27.2.0, SVG Export Plug-In . SVG Version: 6.00 Build 0)  -->
<svg version="1.1" xmlns="http://www.w3.org/2000/svg" xmlns:xlink="http://www.w3.org/1999/xlink" x="0px" y="0px"
	 viewBox="0 0 4000 4000" style="enable-background:new 0 0 4000 4000;" xml:space="preserve">
<style type="text/css">
	.st0{fill:#B48633;}
	.st1{fill:#FEFDFD;}
	.st2{fill:#E1B281;}
	.st3{display:none;}
	.st4{display:inline;fill:#E1B281;}
	.st5{display:inline;fill:#B48633;}
	.st6{display:inline;fill:#FEFDFD;}
</style>
<g id="Layer_1">
	<g>
		<path class="st0" d="M2269.8,2341c-29.4,8.1-60.1,13.2-90.6,9.9c-32.5-3.5-58.4-18.4-78.8-43.7c-29.2-36.3-57-89.5-43.8-137.2
			c5.9-21.1,18.3-40.7,30.1-58.9c14.4-22.3,29.9-44.5,47.8-64c24-26.2,49.5-48.2,65.2-80.7c26-53.9,33.1-119,51.4-176
			c10-31.2,28.7-61.5,34.4-93.8c4.3-24-0.8-48.2,2.1-72.2c4.1-33.7,42.1-82.7,68.9-102.2c11.5-8.4,24.3-9.2,38-6.7
			c41.7,7.3,105.8,41.9,129.9,77.4c34.9,2.8,129.9,29.7,158,49.9c16,7.2,34,18.4,50.8,22.7c126.6,18.9,308.6,192.6,383.1,293.8
			c48.4,65.8,91.2,155.3,78.4,239.3c-7.1,46.7-30.1,81.9-68.2,109.6c-149.6,109-532,60.6-710.4,40.1c-42.1-4.8-84.8-7-126.7-12.7
			L2269.8,2341z"/>
		<path class="st1" d="M2682.5,1642.6c16,7.2,34,18.4,50.8,22.7c11.6,26.3,26.8,50.7,39,76.7c35.1,74.8,79.5,195.8,50,276
			c-4.5,12.1-12.9,26.2-25.5,31.3c-6.9,2.8-14.2,1.7-20.8-1.3c-23-10.4-43.3-38.9-56.2-59.8c13.1,0.8,22.5,13.1,35.6,14
			c7,0.5,12.6-2.2,17.4-7.1c30.4-31.3-39.8-217.1-55-256C2707.9,1713.8,2683.7,1667.3,2682.5,1642.6z"/>
		<path class="st2" d="M2524.5,1592.7c34.9,2.8,129.9,29.7,158,49.9c1.2,24.8,25.5,71.2,35.3,96.5c15.2,38.9,85.4,224.7,55,256
			c-4.8,4.9-10.4,7.6-17.4,7.1c-13-0.9-22.5-13.3-35.6-14c-18-21.7-29.9-49.9-41.6-75.4c-36.8-80-63.3-182.8-107.1-255.2
			c-13.4-22.2-30.1-42.8-47.2-62.2L2524.5,1592.7z"/>
		<path class="st1" d="M2309.1,1743.8c-2.8-5.9-4.9-11.2-5.2-17.8c-0.6-13.4,3.4-26.6,4.6-39.8c2.3-25.4-1.6-51,7.4-75.4
			c7.2-19.6,36.2-65.6,54-74.7l2.3,2c7.2,6,11.7,8.5,21,10.6c45.3,10.3,59.8,33.8,82.8,71.8c36.2,59.8,81.4,143.8,86.1,213.8
			c-13,26.9-26.6,53.8-37.7,81.6c9.9,24,20.7,50.8,9.6,76.5c-15.9,37-70,51.2-99.3,76.8c-29.2,25.5-43.6,64.3-67.6,94.2
			c-17.9,22.4-45.5,37.4-58.5,63.4c-17.5,35.1-5.7,73.3-19,108.6l-19.6,5.6c-0.6-0.4-1.2-0.8-1.8-1.3c-6.3-5.8-5.5-14.8-5.4-22.5
			c-44.4-22.7-108.1-33.9-134.8-80.5c-12.5-21.8-12.6-45.4-4.3-68.7c20.3-56.5,67.5-100.5,97.8-151.8
			C2268.9,1936.1,2286.8,1833.2,2309.1,1743.8z"/>
		<path class="st2" d="M2309.1,1743.8c42.5,27.3,34.4,44,60.4,78.1c29.8,39.3,66,52.6,77.4,106.1c2.8,12.9,4.1,26.2,5.4,39.4
			c-51.2,33.2-123.1,75.8-137.6,140.1c-1.9,8.6-1.8,17.2-1.6,25.9c-33.6,22.5-63.4,49-71.2,90.7c-5,26.8,0.7,49.8,12,73.9
			c2.8,6,7.1,12.6,8.9,19c-44.4-22.7-108.1-33.9-134.8-80.5c-12.5-21.8-12.6-45.4-4.3-68.7c20.3-56.5,67.5-100.5,97.8-151.8
			C2268.9,1936.1,2286.8,1833.2,2309.1,1743.8z"/>
		<path class="st0" d="M1546.3,1514.9c12.1-7.1,23.5-15.1,35.3-22.7c17.2-11.1,27.6-16.9,48.3-12.2c45.6,3.8,140.8,17,180.2,37.4
			c37.4,75.9,74.2,91.4,147.6,127c5.8,10.6,11.5,21.2,17,32c-0.7,11.7-1.8,23.6-0.5,35.3c3,27.1,13.8,52.1,21.6,78
			c7.8,25.9,11.8,54.5,11.7,81.5c-13.1,22.1-33.8,40.2-51.7,58.3c-1.7,32.2-5.6,64.2-4.7,96.6c1.7,56.6,30.2,162.4-16.3,205.1
			c-2.4,2.2-5,4.2-7.6,6.1c-56.3,26.1-115.5,48.1-173.1,71.4c-200,81-501.1,198.8-711.6,211.8c-63.3,3.9-134.8-1.9-184.2-46.4
			c-37.7-33.9-52.9-82.1-55.1-131.6c-4.6-102.6,35.3-212.9,91.5-297.9c20.5-30.9,44.3-58.8,67.4-87.8c14.9-18.7,28.1-39.3,44.4-56.9
			c14-15.1,27.8-25.4,48.9-26c7.9-9,14.6-18.8,23.1-27.4c13.5-14.9,28.9-28.3,43.6-42.1c4.7-12.1,10.6-23.7,16.2-35.3
			c24.9-39.4,60.6-69.5,105.6-83.6c12.1-3.8,28.1-5.5,38.4-12.6c52.5-45.1,118.6-73.4,182.9-97.3l38.1-14.2
			C1517,1545.4,1530.5,1529.2,1546.3,1514.9z"/>
		<path class="st2" d="M1138.4,1769.3c95.5,4.5,196.1,18.6,264.2,92.8c27.1,29.5,47.9,67,56.2,106.3c-18.5-18-34.9-38-53.8-55.7
			c-83.3-78.2-169.4-111.3-282.9-108.1C1126.8,1792.5,1132.7,1780.9,1138.4,1769.3z"/>
		<path class="st1" d="M1122.2,1804.6c113.5-3.2,199.6,29.9,282.9,108.1c18.8,17.7,35.3,37.7,53.8,55.7c8,15.7,9.6,29.6,11,46.8
			c-14.1,0.2-27.7,0.7-41.4-3.3c-19.6-35-44.3-65.8-75-91.7c-55.5-46.8-129-75.6-201.8-77.7c-24.5-0.7-48.8,2-73.1,4.2
			C1092.1,1831.7,1107.5,1818.3,1122.2,1804.6z"/>
		<path class="st2" d="M1503.4,1561.7c13.7-16.2,27.2-32.5,43-46.7c116.8,47.3,271.4,129.6,322.5,250.5
			c15.1,35.7,18.1,70.9,16.4,109.3c-9.5-43.2-32.7-78.4-60.2-112.5C1746.8,1665.5,1630,1575.2,1503.4,1561.7z"/>
		<path class="st1" d="M1503.4,1561.7c126.6,13.5,243.4,103.8,321.7,200.6c27.5,34.1,50.7,69.2,60.2,112.5
			c-1.1,9.3-2.3,16.3-10.4,22.2c-13.9,10.2-37.5,7.8-53.8,5.7c0.3-22.1-2.1-43.7-9.1-64.8c-47.2-141.3-225.6-201.6-346.7-262
			L1503.4,1561.7z"/>
		<path class="st1" d="M1767.5,1526.2c-52.5-16.6-110-23.8-160.6-45.3c0.7-0.3,1.4-0.7,2.2-0.8c6.1-1,14.5,0,20.9-0.1
			c45.6,3.8,140.8,17,180.2,37.4c37.4,75.9,74.2,91.4,147.6,127c5.8,10.6,11.5,21.2,17,32c-0.7,11.7-1.8,23.6-0.5,35.3
			c3,27.1,13.8,52.1,21.6,78c7.8,25.9,11.8,54.5,11.7,81.5c-13.1,22.1-33.8,40.2-51.7,58.3c-1.7,32.2-5.6,64.2-4.7,96.6
			c1.7,56.6,30.2,162.4-16.3,205.1c-2.4,2.2-5,4.2-7.6,6.1c-1.7-2.7-3.4-5.4-4.9-8.2c-35.2-69.4-16.9-140,5.6-209.4
			c-11.3-14.4-21.8-28.6-23.8-47.5c-4.3-40.2,35.7-72.1,58-100.8c12.1-15.5,22-34.1,19.1-54.3c-4.5-31.5-35.1-52.5-59-69.5
			c3.1-4.9,5.8-9.9,8.1-15.2c9.1-21.7,4.2-39.4-4-60.2C1864.2,1632.2,1813.5,1583.8,1767.5,1526.2z"/>
		<path class="st2" d="M1078.6,1846.7c24.3-2.1,48.6-4.8,73.1-4.2c72.7,2.1,146.3,30.9,201.8,77.7c30.7,25.9,55.4,56.7,75,91.7
			c-30.6-2.1-61.3-4.5-91.9-7.2c-67.1-6.2-200.1-20.6-245.8-71.2c-14.9-16.5-18.8-39.9-33.4-57.2l-1.9-2.2
			C1063.4,1865,1070.1,1855.2,1078.6,1846.7z"/>
		<path class="st2" d="M1282.3,1673.1c52.5-45.1,118.6-73.4,182.9-97.3c121.1,60.4,299.6,120.7,346.7,262c7,21.1,9.4,42.6,9.1,64.8
			c-97.8-26.3-176.3-84.2-258.8-140c-45.5-30.8-92.1-62-145.2-77.9c-20.5-6.1-42.4-10.4-63.8-11.6
			C1336.8,1672.3,1294,1679.4,1282.3,1673.1z"/>
	</g>
</g>
<g id="Layer_2" class="st3">
	<path class="st4" d="M2822.2,2017.9c-4.5,12.1-12.9,26.2-25.4,31.4c-6.9,2.8-14.2,1.7-20.8-1.3c-23-10.4-43.3-38.9-56.2-59.8
		c-18-21.7-29.9-49.9-41.6-75.4c-36.8-79.9-63.3-182.8-107.1-255.2c-13.4-22.1-30.1-42.8-47.2-62.1l0.5-2.7
		c34.9,2.8,129.9,29.7,158,49.9c16,7.2,34,18.4,50.8,22.7c11.6,26.3,26.8,50.7,39,76.7C2807.4,1816.7,2851.7,1937.7,2822.2,2017.9z"
		/>
	<path class="st5" d="M1955.9,1929.6c-1.7,32.2-5.6,64.2-4.7,96.6c1.7,56.6,30.2,162.4-16.3,205c-2.4,2.2-5,4.2-7.6,6.1
		c-56.3,26.1-115.5,48.1-173.1,71.4c-200,81-501.1,198.8-711.6,211.8c-63.3,3.9-134.8-1.9-184.2-46.4
		c-37.7-33.9-52.9-82.1-55.1-131.6c-4.6-102.6,35.3-212.9,91.5-297.9c20.5-30.9,44.3-58.8,67.4-87.8c14.9-18.7,28.1-39.3,44.4-56.9
		c14-15.1,27.8-25.4,48.9-26l1.9,2.2c14.6,17.3,18.5,40.8,33.4,57.2c45.8,50.6,178.8,65,245.8,71.2c30.6,2.7,61.2,5.1,91.8,7.2
		c13.7,4,27.3,3.5,41.4,3.3c-1.4-17.2-2.9-31.1-11-46.8c-8.3-39.3-29.1-76.8-56.2-106.3c-68.2-74.2-168.8-88.2-264.2-92.8
		c24.9-39.4,60.6-69.6,105.5-83.6c12.1-3.8,28.1-5.5,38.4-12.6c11.7,6.3,54.5-0.8,71,0c21.4,1.1,43.3,5.4,63.8,11.6
		c53.2,15.9,99.7,47.1,145.2,77.9c82.5,55.8,161,113.7,258.8,140c16.2,2.1,39.8,4.5,53.8-5.7c8.1-5.9,9.3-12.9,10.4-22.2
		c1.7-38.3-1.3-73.6-16.4-109.3c-51.1-120.9-205.8-203.2-322.5-250.5c12.1-7.1,23.5-15.1,35.3-22.7c17.2-11.1,27.6-16.8,48.3-12.2
		c45.7,3.8,140.8,17,180.2,37.4c37.4,75.9,74.1,91.4,147.6,127c5.9,10.6,11.5,21.2,17.1,32c-0.7,11.7-1.8,23.6-0.5,35.3
		c3,27.1,13.8,52.1,21.6,78c7.8,25.9,11.8,54.5,11.7,81.4C1994.5,1893.3,1973.8,1911.4,1955.9,1929.6z"/>
	<path class="st4" d="M1469.8,2015.2c-14.1,0.2-27.7,0.7-41.4-3.3c-30.6-2.1-61.3-4.5-91.8-7.2c-67.1-6.2-200.1-20.6-245.8-71.2
		c-14.9-16.5-18.8-39.9-33.4-57.2l-1.9-2.2c7.9-9,14.6-18.8,23.1-27.4c13.5-14.9,28.9-28.3,43.6-42.1c4.7-12.1,10.6-23.7,16.2-35.3
		c95.5,4.5,196.1,18.6,264.2,92.8c27.1,29.5,47.9,67,56.2,106.3C1466.9,1984,1468.4,1998,1469.8,2015.2z"/>
	<path class="st4" d="M1885.3,1874.7c-1.1,9.4-2.3,16.3-10.4,22.2c-13.9,10.2-37.5,7.8-53.8,5.7c-97.8-26.3-176.3-84.2-258.8-140
		c-45.5-30.8-92.1-62-145.2-77.9c-20.5-6.1-42.4-10.4-63.8-11.6c-16.5-0.9-59.3,6.2-71,0c52.5-45.1,118.6-73.4,182.9-97.3l38.1-14.2
		c13.7-16.2,27.2-32.5,43-46.7c116.8,47.3,271.4,129.6,322.5,250.5C1883.9,1801.1,1886.9,1836.4,1885.3,1874.7z"/>
	<path class="st6" d="M1767.9,1525.7c-52.5-16.6-110-23.8-160.6-45.3c0.7-0.3,1.4-0.7,2.2-0.8c6.1-1,14.5,0,20.9-0.1
		c45.6,3.8,140.8,17,180.2,37.4c37.4,75.9,74.2,91.4,147.6,127c5.8,10.6,11.5,21.2,17,32c-0.7,11.7-1.8,23.6-0.5,35.3
		c3,27.1,13.8,52.1,21.6,78c7.8,25.9,13.5,54.2,13.4,81.2c-13.1,22.1-33.3,40.9-51.3,59.1c-1.7,32.2-7.8,63.7-6.8,96.1
		c1.7,56.6,33,161.8-13.5,204.5c-2.4,2.2-7.8,4.8-10.4,6.7c-1.7-2.7-3.4-5.4-4.9-8.2c-35.2-69.4-16.9-140,5.6-209.4
		c-11.3-14.4-21.8-28.6-23.8-47.5c-4.3-40.2,35.7-72.1,58-100.8c12.1-15.5,22-34.1,19.1-54.3c-4.5-31.5-35.1-52.5-59-69.5
		c3.1-4.9,5.8-9.9,8.1-15.2c9.1-21.7,4.2-39.4-4-60.2C1864.6,1631.7,1814,1583.2,1767.9,1525.7z"/>
	<path class="st5" d="M3194.7,2198.3c-7.1,46.7-30.1,81.9-68.2,109.6c-149.6,109-532,60.6-710.4,40.1c-42.1-4.8-84.1-9-126-14.6
		l-22,6.3c-29.4,8.1-58.4,14.5-88.9,11.2c-32.5-3.5-58.4-18.4-78.8-43.7c-29.2-36.3-57-89.5-43.8-137.2
		c5.9-21.1,18.3-40.7,30.1-58.9c14.4-22.3,29.9-44.5,47.8-64c24-26.2,49.5-48.2,65.2-80.7c26-53.9,33.1-119,51.4-176
		c10-31.2,28.7-61.5,34.4-93.9c4.3-24-0.8-48.2,2.1-72.2c4.2-33.7,42.1-82.7,68.9-102.2c11.5-8.4,24.3-9.2,38-6.7
		c41.7,7.3,105.8,41.9,129.9,77.4l-0.5,2.7c17.1,19.4,33.8,40,47.2,62.1c43.7,72.3,70.3,175.2,107.1,255.2
		c11.7,25.5,23.6,53.8,41.6,75.4c12.9,20.9,33.2,49.4,56.2,59.8c6.6,3,13.9,4.1,20.8,1.3c12.6-5.2,21-19.2,25.4-31.4
		c29.5-80.2-14.9-201.2-50-276c-12.2-26-27.4-50.4-39-76.7c126.7,18.9,308.6,192.6,383.1,293.8
		C3164.8,2024.8,3207.5,2114.4,3194.7,2198.3z"/>
	<path class="st6" d="M2309.1,1743.8c-2.8-5.9-4.9-11.2-5.2-17.8c-0.6-13.4,3.4-26.6,4.6-39.8c2.3-25.4-1.6-51,7.4-75.4
		c7.2-19.6,36.2-65.6,54-74.7l2.3,2c7.2,6,11.7,8.5,21,10.6c45.3,10.3,59.8,33.8,82.8,71.8c36.2,59.8,81.4,143.8,86.1,213.8
		c-13,26.9-26.6,53.8-37.7,81.6c9.9,24,20.7,50.8,9.6,76.5c-15.9,37-70,51.2-99.3,76.8c-29.2,25.5-43.6,64.3-67.6,94.2
		c-17.9,22.4-45.5,37.4-58.5,63.4c-17.5,35.1-5.7,73.3-19,108.6l-19.6,5.6c-0.6-0.4-1.2-0.8-1.8-1.3c-6.3-5.8-5.5-14.8-5.4-22.5
		c-44.4-22.7-108.1-33.9-134.8-80.5c-12.5-21.8-12.6-45.4-4.3-68.7c20.3-56.5,67.5-100.5,97.8-151.8
		C2268.9,1936.1,2286.8,1833.2,2309.1,1743.8z"/>
	<path class="st4" d="M2308,1741.4c42.5,27.3,35.5,46.4,61.5,80.6c29.8,39.3,66,52.6,77.4,106.1c2.8,12.9,4.1,26.2,5.4,39.4
		c-51.2,33.2-123.1,75.8-137.6,140.1c-1.9,8.6-1.8,17.2-1.6,25.9c-33.6,22.5-63.4,49-71.2,90.7c-5,26.8,0.7,49.8,12,73.9
		c2.8,6,7.1,12.6,8.9,19c-44.4-22.7-110.4-33.8-137.1-80.4c-12.5-21.8-11.5-48.8-3.1-72.1c20.3-56.5,68.7-97.3,99-148.5
		C2268.9,1936.1,2285.7,1830.8,2308,1741.4z"/>
</g>
</svg>
